<svg width="295" height="58" viewBox="0 0 295 58" fill="none" xmlns="http://www.w3.org/2000/svg">
<path d="M152.851 17.536C153.737 17.9934 154.18 18.7223 154.18 19.7227C154.18 20.3229 153.966 20.9089 153.537 21.4806C153.08 22.0808 152.494 22.381 151.779 22.381C151.293 22.381 150.807 22.2523 150.321 21.9951C148.921 21.3377 147.406 21.0089 145.776 21.0089C143.776 21.0089 142.032 21.4377 140.546 22.2952C139.059 23.1241 137.916 24.3103 137.116 25.8539C136.315 27.3688 135.915 29.1124 135.915 31.0847C135.915 34.4575 136.815 37.0158 138.616 38.7594C140.446 40.503 142.832 41.3748 145.776 41.3748C147.52 41.3748 149.035 41.0461 150.321 40.3886C150.836 40.16 151.293 40.0456 151.693 40.0456C152.436 40.0456 153.065 40.3601 153.58 40.9889C154.009 41.532 154.223 42.1179 154.223 42.7468C154.223 43.2041 154.109 43.6186 153.88 43.9902C153.651 44.3618 153.323 44.6476 152.894 44.8477C150.664 45.9624 148.292 46.5198 145.776 46.5198C142.975 46.5198 140.403 45.9339 138.059 44.7619C135.715 43.5614 133.843 41.8035 132.442 39.4882C131.042 37.173 130.341 34.3718 130.341 31.0847C130.341 28.1691 130.999 25.5537 132.314 23.2385C133.657 20.9232 135.501 19.1224 137.845 17.8362C140.188 16.5213 142.832 15.8639 145.776 15.8639C148.32 15.8639 150.679 16.4213 152.851 17.536Z" fill="black"/>
<path d="M182.261 42.7468C182.404 43.1184 182.476 43.4614 182.476 43.7758C182.476 44.519 182.233 45.1335 181.747 45.6194C181.261 46.0768 180.704 46.3054 180.075 46.3054C179.56 46.3054 179.089 46.1482 178.66 45.8338C178.26 45.5194 177.945 45.0906 177.717 44.5476L175.487 39.3596H162.71L160.481 44.5904C160.281 45.1335 159.966 45.5623 159.537 45.8767C159.137 46.1625 158.694 46.3054 158.208 46.3054C157.465 46.3054 156.893 46.1054 156.493 45.7052C156.122 45.305 155.936 44.7619 155.936 44.0759C155.936 43.8187 155.979 43.5471 156.065 43.2613L166.741 17.6218C166.969 17.0501 167.312 16.6071 167.77 16.2926C168.227 15.9782 168.741 15.8496 169.313 15.9068C169.828 15.9068 170.299 16.064 170.728 16.3784C171.185 16.6642 171.514 17.0787 171.714 17.6218L182.261 42.7468ZM173.386 34.4289L169.056 24.3961L164.811 34.4289H173.386Z" fill="black"/>
<path d="M198.497 16.0783C199.955 16.0783 201.341 16.5213 202.656 17.4074C203.971 18.2649 205.029 19.4368 205.829 20.9232C206.629 22.381 207.029 23.9816 207.029 25.7252C207.029 27.4403 206.629 29.0409 205.829 30.5273C205.029 32.0136 203.971 33.1999 202.656 34.0859C201.341 34.9435 199.955 35.3722 198.497 35.3722H191.037V43.4757C191.037 44.2474 190.808 44.8763 190.351 45.3622C189.893 45.8481 189.293 46.0911 188.55 46.0911C187.835 46.0911 187.25 45.8481 186.792 45.3622C186.335 44.8477 186.106 44.2188 186.106 43.4757V18.6937C186.106 17.9505 186.349 17.3359 186.835 16.85C187.35 16.3355 187.978 16.0783 188.722 16.0783H198.497ZM198.497 30.4844C199.04 30.4844 199.569 30.2557 200.084 29.7984C200.627 29.3411 201.055 28.7551 201.37 28.0405C201.713 27.2973 201.884 26.5256 201.884 25.7252C201.884 24.9249 201.713 24.1674 201.37 23.4528C201.055 22.7097 200.627 22.1237 200.084 21.6949C199.569 21.2376 199.04 21.0089 198.497 21.0089H191.037V30.4844H198.497Z" fill="black"/>
<path d="M217.3 43.4757C217.3 44.2188 217.028 44.8477 216.485 45.3622C215.942 45.8481 215.313 46.0911 214.599 46.0911C213.827 46.0911 213.184 45.8481 212.669 45.3622C212.183 44.8477 211.94 44.2188 211.94 43.4757V18.6937C211.94 17.9505 212.198 17.3359 212.712 16.85C213.227 16.3355 213.884 16.0783 214.684 16.0783C215.399 16.0783 216.013 16.3355 216.528 16.85C217.042 17.3359 217.3 17.9505 217.3 18.6937V43.4757Z" fill="black"/>
<path d="M243.47 16.0783C244.242 16.0783 244.871 16.3069 245.357 16.7643C245.843 17.2216 246.086 17.8219 246.086 18.565C246.086 19.3082 245.843 19.9085 245.357 20.3658C244.871 20.7946 244.242 21.0089 243.47 21.0089H236.739V43.4757C236.739 44.2188 236.467 44.8477 235.924 45.3622C235.381 45.8481 234.71 46.0911 233.909 46.0911C233.109 46.0911 232.451 45.8481 231.937 45.3622C231.422 44.8477 231.165 44.2188 231.165 43.4757V21.0089H224.434C223.662 21.0089 223.033 20.7803 222.547 20.3229C222.061 19.8656 221.818 19.2653 221.818 18.5222C221.818 17.8076 222.061 17.2216 222.547 16.7643C223.062 16.3069 223.691 16.0783 224.434 16.0783H243.47Z" fill="black"/>
<path d="M271.99 42.7468C272.133 43.1184 272.204 43.4614 272.204 43.7758C272.204 44.519 271.961 45.1335 271.475 45.6194C270.99 46.0768 270.432 46.3054 269.803 46.3054C269.289 46.3054 268.817 46.1482 268.388 45.8338C267.988 45.5194 267.674 45.0906 267.445 44.5476L265.216 39.3596H252.439L250.209 44.5904C250.009 45.1335 249.695 45.5623 249.266 45.8767C248.866 46.1625 248.423 46.3054 247.937 46.3054C247.194 46.3054 246.622 46.1054 246.222 45.7052C245.85 45.305 245.664 44.7619 245.664 44.0759C245.664 43.8187 245.707 43.5471 245.793 43.2613L256.469 17.6218C256.698 17.0501 257.041 16.6071 257.498 16.2926C257.955 15.9782 258.47 15.8496 259.042 15.9068C259.556 15.9068 260.028 16.064 260.456 16.3784C260.914 16.6642 261.243 17.0787 261.443 17.6218L271.99 42.7468ZM263.115 34.4289L258.784 24.3961L254.54 34.4289H263.115Z" fill="black"/>
<path d="M292.385 41.0746C293.128 41.0746 293.742 41.3176 294.228 41.8035C294.743 42.2609 295 42.8611 295 43.6043C295 44.3189 294.743 44.9191 294.228 45.4051C293.742 45.8624 293.128 46.0911 292.385 46.0911H278.45C277.707 46.0911 277.078 45.8481 276.564 45.3622C276.078 44.8477 275.835 44.2188 275.835 43.4757V18.6937C275.835 17.9505 276.092 17.3359 276.606 16.85C277.121 16.3355 277.778 16.0783 278.579 16.0783C279.293 16.0783 279.908 16.3355 280.422 16.85C280.937 17.3359 281.194 17.9505 281.194 18.6937V41.0746H292.385Z" fill="black"/>
<path d="M44.6977 30.12L28.7266 0H41.2676L52.5224 20.2586L60.0256 11.1476H73.6386L47.163 46.3055H34.4076L44.6977 30.12Z" fill="#603F98"/>
<path d="M57.5603 41.482L64.0988 33.1213L81.5705 57.7746H69.2438L57.5603 41.482Z" fill="#603F98"/>
<path d="M0 46.1983H12.2195L23.5815 21.3305L34.3003 46.1983H35.801H45.7695L28.8337 10.1829H18.2221L0 46.1983Z" fill="#603F98"/>
<path d="M103.651 35.6938H77.4973C79.4267 39.9813 83.8215 40.8389 87.4659 40.6245C90.3814 40.453 93.397 38.1234 94.5403 36.9801L99.7925 43.6258C93.3612 52.0293 83.4642 49.8427 79.3195 47.6989L67.1 31.4063C67.6717 25.2608 72.1593 12.9698 85.5365 12.9698C98.9136 12.9698 103.187 26.0468 103.651 32.5853V35.6938Z" fill="#603F98"/>
<path d="M93.6828 28.0848H77.1758C77.676 26.1911 80.0484 22.3824 85.5365 22.2966C91.0245 22.2109 93.2541 26.1197 93.6828 28.0848Z" fill="white"/>
<line x1="118.478" x2="118.478" y2="57.6674" stroke="black" stroke-width="5"/>
</svg>
